<svg width="12" height="12" viewBox="0 0 12 12" fill="#fff" xmlns="http://www.w3.org/2000/svg">
<title>Cart</title>
<path d="M1.86644 11.2C2.3819 11.2 2.79977 10.7822 2.79977 10.2667C2.79977 9.75124 2.3819 9.33337 1.86644 9.33337C1.35097 9.33337 0.933105 9.75124 0.933105 10.2667C0.933105 10.7822 1.35097 11.2 1.86644 11.2Z" fill="currentColor"></path>
<path d="M9.33324 11.2C9.8487 11.2 10.2666 10.7822 10.2666 10.2667C10.2666 9.75124 9.8487 9.33337 9.33324 9.33337C8.81777 9.33337 8.3999 9.75124 8.3999 10.2667C8.3999 10.7822 8.81777 11.2 9.33324 11.2Z" fill="currentColor"></path>
<path d="M10.7334 7.46683H1.22183L1.6885 6.5335H8.86677C8.95997 6.53348 9.05102 6.50555 9.12821 6.45332C9.20539 6.40109 9.26517 6.32694 9.29984 6.24043L11.1665 1.57376C11.1949 1.50296 11.2055 1.42628 11.1973 1.35043C11.1892 1.27459 11.1626 1.20189 11.1199 1.13871C11.0771 1.07552 11.0196 1.02378 10.9522 0.988005C10.8848 0.952229 10.8097 0.933514 10.7334 0.933496H1.5933L0.797168 0.136429C0.709541 0.0488014 0.590692 -0.000427246 0.466768 -0.000427246C0.342844 -0.000427246 0.223995 0.0488014 0.136368 0.136429C0.0487404 0.224057 -0.000488281 0.342905 -0.000488281 0.466829C-0.000488281 0.590753 0.0487404 0.709602 0.136368 0.797229L0.933435 1.59336V5.9567L0.0495679 7.72443C0.0139161 7.79558 -0.00294925 7.87466 0.000574618 7.95416C0.00409849 8.03367 0.0278945 8.11095 0.0697012 8.17866C0.111508 8.24637 0.169936 8.30227 0.239434 8.34104C0.308931 8.37981 0.387188 8.40016 0.466768 8.40017H10.7334C10.8572 8.40017 10.9759 8.351 11.0634 8.26348C11.1509 8.17597 11.2001 8.05727 11.2001 7.9335C11.2001 7.80973 11.1509 7.69103 11.0634 7.60352C10.9759 7.516 10.8572 7.46683 10.7334 7.46683Z" fill="currentColor"></path>
</svg>