
<svg width="20" height="19" viewBox="0 0 20 19" fill="none" xmlns="http://www.w3.org/2000/svg">
<title>Instagram</title>
<path d="M15.941 1.97694L15.941 1.97694C15.5766 1.84244 15.0343 1.68506 14.0462 1.64222C12.989 1.5964 12.6706 1.58675 9.99998 1.58675C7.32935 1.58675 7.01094 1.5964 5.95369 1.64222C4.96566 1.68506 4.4234 1.84244 4.059 1.97694L4.05899 1.97694C3.5768 2.15497 3.22895 2.36975 2.86635 2.71423C2.50371 3.05873 2.27684 3.38996 2.08873 3.84985C1.94653 4.19748 1.78041 4.71445 1.73521 5.65522L1.86007 5.66122L1.73521 5.65523C1.68696 6.66001 1.6768 6.96284 1.6768 9.50002C1.6768 12.0372 1.68696 12.34 1.73521 13.3448L1.86007 13.3389L1.73521 13.3449C1.78041 14.2856 1.94653 14.8026 2.08873 15.1502C2.27684 15.6101 2.50371 15.9413 2.86635 16.2858C3.22895 16.6303 3.5768 16.8451 4.05899 17.0231C4.4234 17.1576 4.96567 17.315 5.95373 17.3578L5.95914 17.2329L5.95373 17.3578C7.01078 17.4036 7.32919 17.4133 9.99998 17.4133C12.6708 17.4133 12.9892 17.4036 14.0462 17.3578C15.0343 17.315 15.5766 17.1576 15.941 17.0231C16.4232 16.8451 16.771 16.6303 17.1336 16.2858C17.4962 15.9413 17.7231 15.6101 17.9112 15.1502C18.0534 14.8026 18.2195 14.2856 18.2647 13.3448C18.313 12.34 18.3232 12.0372 18.3232 9.50002C18.3232 6.96284 18.313 6.66001 18.2647 5.65519L18.1399 5.66118L18.2647 5.65519C18.2195 4.71445 18.0534 4.19748 17.9112 3.84985C17.7231 3.38996 17.4962 3.05873 17.1336 2.71423C16.771 2.36975 16.4232 2.15497 15.941 1.97694ZM0.64066 3.32447L0.524967 3.27714L0.640661 3.32447C0.889871 2.71527 1.22202 2.20047 1.76448 1.68513C2.30702 1.16972 2.84975 0.85346 3.49287 0.61602L3.44958 0.498757L3.49288 0.616019C4.11532 0.386207 4.82923 0.227722 5.88243 0.182052C6.94632 0.135936 7.2847 0.125 9.99998 0.125C12.7153 0.125 13.0537 0.135936 14.1175 0.182051C15.1707 0.227722 15.8846 0.386207 16.5071 0.616019L16.5503 0.499065L16.5071 0.61602C17.1502 0.853459 17.6929 1.16972 18.2355 1.68513C18.7779 2.20047 19.1101 2.71527 19.3593 3.32447L19.475 3.27714L19.3593 3.32447C19.6005 3.91414 19.767 4.59051 19.815 5.5892C19.8635 6.59943 19.875 6.9206 19.875 9.50002C19.875 12.0794 19.8635 12.4006 19.815 13.4108C19.767 14.4095 19.6005 15.0859 19.3593 15.6756C19.1101 16.2848 18.7779 16.7996 18.2355 17.3149C17.6929 17.8303 17.1502 18.1466 16.5071 18.384C15.8846 18.6138 15.1707 18.7723 14.1175 18.818C13.0537 18.8641 12.7153 18.875 9.99998 18.875C7.2847 18.875 6.94632 18.8641 5.88243 18.818C4.82923 18.7723 4.11532 18.6138 3.49288 18.384C2.84975 18.1466 2.30702 17.8303 1.76448 17.3149C1.22202 16.7996 0.889871 16.2847 0.64066 15.6756C0.399426 15.0859 0.23298 14.4095 0.184994 13.4108C0.136472 12.4006 0.125 12.0794 0.125 9.50002C0.125 6.92059 0.136472 6.59943 0.184994 5.5892C0.23298 4.59051 0.399426 3.91414 0.64066 3.32447ZM4.98983 9.50002C4.98983 6.88077 7.22684 4.74662 9.99998 4.74662C12.7731 4.74662 15.0101 6.88077 15.0101 9.50002C15.0101 12.1193 12.7731 14.2534 9.99998 14.2534C7.22684 14.2534 4.98983 12.1193 4.98983 9.50002ZM6.54163 9.50002C6.54163 11.3239 8.09613 12.7917 9.99998 12.7917C11.9038 12.7917 13.4583 11.3239 13.4583 9.50002C13.4583 7.67613 11.9038 6.20833 9.99998 6.20833C8.09613 6.20833 6.54163 7.67613 6.54163 9.50002ZM16.413 4.42889C16.413 4.9835 15.9378 5.44391 15.338 5.44391C14.7382 5.44391 14.263 4.9835 14.263 4.42889C14.263 3.87428 14.7382 3.4139 15.338 3.4139C15.9378 3.4139 16.413 3.87428 16.413 4.42889Z" fill="#F8F7ED" stroke="#F8F7ED" stroke-width="0.25"/>
</svg>
