<svg width="1044" height="324" viewBox="0 0 1044 324" fill="none" version="1.1" id="svg64" xmlns="http://www.w3.org/2000/svg" xmlns:svg="http://www.w3.org/2000/svg">
   <defs>
  <mask id="mask_a" style="fill:none;stroke:#FFFFFF;stroke-linecap:round;stroke-linejoin:round;">
    <path stroke-width="20" d="m 222.4865,105.14597 -32.20592,94.67934 c 0,0 -11.70066,16.09838 -28.99195,13.28126 -25.25937,-4.1153 -24.63907,-27.88402 -24.63907,-27.88402 l 18.19843,-65.3156 c 0,0 18.82471,-19.39629 35.50366,-12.75487 22.95556,9.14071 21.45813,21.89261 21.45813,21.89261 0,0 -14.13946,46.11263 -14.00987,49.28659 1.26795,31.05512 20.84229,28.07825 31.49299,28.52982 25.97542,1.10132 27.4902,-15.93531 27.4902,-15.93531 l 26.06825,-87.71417 c 0,0 4.61655,-21.28029 10.13783,-27.99613 5.52127,-6.71584 -10.36366,33.00754 -5.71673,41.82642 6.14688,11.66547 16.70355,30.58394 21.81289,31.96055 5.10934,1.37661 -3.17793,11.91308 -1.20475,22.39814 1.97318,10.48507 5.78384,27.46706 23.13143,27.68802 17.34758,0.22097 26.17863,-1.66599 35.61237,-22.80035 9.43375,-21.13437 40.42388,-142.445831 40.42388,-142.445831 L 369.89232,173.03915 c 0,0 5.41372,22.53394 26.82264,19.68997 21.40891,-2.84397 23.88917,-1.98236 23.88917,-1.98236 L 468.64316,30.219898 442.09197,122.95835 c 0,0 11.69874,-14.51865 28.08617,-13.02402 16.38744,1.49464 28.15337,9.29163 26.42956,24.79382 -1.72381,15.50219 -1.72507,37.93922 11.10938,45.78287 17.49727,10.6933 40.01398,-10.86795 40.01398,-10.86795 0,0 -14.0445,37.43114 -14.84733,55.24557 -0.45746,10.15094 0.62787,32.18197 21.62565,30.6746 20.99778,-1.50737 22.80496,-31.64205 22.80496,-31.64205 L 565.761,186.92311 551.08606,165.25607 594.46757,20.60049 558.38246,146.36403 c 0,0 9.41255,38.38371 29.06564,31.99512 19.6531,-6.38858 26.69275,-19.15464 26.69275,-19.15464 l 20.62657,-71.160783 c 0,0 15.12776,-21.111361 31.97002,-15.404317 16.84227,5.707044 25.71321,19.182255 24.34963,27.6902 -1.36358,8.50794 -19.95832,64.0245 -19.95832,64.0245 0,0 -12.81395,19.39987 -31.91253,9.73641 -19.09859,-9.66347 -22.28452,-20.18426 -22.28452,-20.18426 l 58.20459,4.93613 c 0,0 16.78528,19.60446 32.03898,11.05968 15.2537,-8.54477 20.48621,-25.17131 20.48621,-25.17131 l 24.1838,-74.939509 c 0,0 10.29075,-20.55677 30.38053,-15.402432 20.08979,5.154338 23.07319,29.821122 23.07319,29.821122 l 8.75954,-25.354999 -24.26789,87.834678 c 0,0 -17.78042,19.56825 -34.2126,14.86364 -16.43218,-4.70462 -22.55383,-18.79111 -22.55383,-18.79111 l 64.05769,-2.83752 c 0,0 8.99822,19.64221 26.44916,18.04484 15.66559,-1.43394 25.99216,-13.83628 25.99216,-13.83628 l -3.83107,13.18595 34.80168,-119.309121 -7.54482,21.186566 c 0,0 14.47634,-19.031677 30.92771,-14.437041 16.45136,4.594637 25.17692,9.79083 26.51645,20.908706 1.33953,11.117875 -22.60017,87.99064 -22.60017,87.99064 L 937.27619,50.557672 c 0,0 14.39874,-15.058708 32.09797,-11.274444 17.69923,3.784264 24.0602,12.427953 23.77295,30.831133 -0.28724,18.40318 -9.82593,31.330799 -9.82593,31.330799 0,0 -6.34136,15.37528 6.80458,29.18379 11.13884,11.70023 32.60224,12.51823 32.60224,12.51823 0,0 13.6293,0.49916 14.1376,16.8664 0.5083,16.36724 -16.243,20.04219 -16.243,20.04219 l -800.95957,69.17608" class="logoMask" id="mask_main"></path>
    <path d="m 165.03335,74.294175 c 0,0 21.00391,-56.953881 -21.86246,-62.422886 -35.79145,-4.5663698 -42.89208,7.563144 -51.046561,16.537987 -8.154479,8.974843 -29.336028,34.097258 -18.968517,62.406861 10.36751,28.309603 38.330548,35.060473 38.330548,35.060473 0,0 -68.312754,-15.62051 -94.25261,65.69188 -25.9398554,81.31238 48.206569,117.63588 48.206569,117.63588 0,0 97.009511,31.94161 128.759261,-66.84694" class="logoMask" id="mask_e" stroke-width="25"></path>
  </mask>
  <mask id="mask_b" style="fill:none;stroke:#FFFFFF;stroke-linecap:round;stroke-linejoin:round;">
   <path d="M 317.95393,87.383682 551.49238,67.349535" class="logoMask" id="mask_cross" stroke-width="25"></path>
 </mask>
</defs>
  <g fill="#F8F7ED" style="mask: url(#mask_a);">
    <path d="M203.88 239.786C202.6 237.601 200.51 235.974 198.036 235.234C197.241 235.052 196.427 234.958 195.611 234.954C193.44 234.923 191.32 235.595 189.586 236.864C187.852 238.133 186.603 239.926 186.036 241.96C177.155 273.023 155.038 295.062 125.379 302.427C118.167 304.194 110.758 305.09 103.32 305.095C91.766 305.109 80.3238 302.9 69.6547 298.595C58.9856 294.291 49.3013 287.977 41.1616 280.018C11.2257 250.39 17.1505 208.274 31.3215 181.113C39.0827 166.484 49.7312 154.288 61.9619 145.858C74.1926 137.428 87.971 132.966 101.588 132.966C104.602 132.965 107.613 133.179 110.596 133.605C111.013 133.669 111.434 133.698 111.855 133.695C114.199 133.624 116.447 132.772 118.22 131.281C119.993 129.791 121.184 127.754 121.591 125.512C121.917 123.036 121.224 120.536 119.663 118.553C118.102 116.57 115.799 115.264 113.252 114.918C80.4177 110.221 80.5679 79.977 81.3994 70.8185C82.5146 57.9774 87.4454 45.7265 95.5935 35.5521C104.486 24.8355 115.851 19.1856 128.474 19.1856H129.791C142.195 19.4547 152.058 24.3534 157.509 33.0075C163.423 42.3117 163.365 55.5394 157.359 67.5564C156.756 68.7097 156.398 69.969 156.307 71.2593C156.216 72.5496 156.393 73.8446 156.828 75.0671C157.234 76.2132 157.878 77.2661 158.721 78.1608C159.563 79.0555 160.585 79.7728 161.725 80.2684C163.039 80.8566 164.47 81.1588 165.917 81.154C167.749 81.1534 169.547 80.6756 171.123 79.7706C172.7 78.8655 173.997 77.5664 174.88 76.0087C183.842 57.6693 183.472 37.895 173.898 23.053C165.282 8.9734 149.298 0.633229 130.011 0.0615234H128.856C90.5811 0.0615234 64.7106 35.3167 61.8695 69.3949C60.5067 86.2097 63.9715 100.401 72.1831 111.712C72.7419 112.429 73.125 113.26 73.3031 114.142C73.4813 115.024 73.4497 115.933 73.2109 116.802C72.9286 117.6 72.4641 118.326 71.8522 118.926C71.2403 119.526 70.4966 119.984 69.6769 120.265C46.7514 129.301 26.8866 147.931 13.7666 172.739C-8.616 215.337 -3.3957 262.631 27.1061 293.156C47.288 312.806 74.676 323.885 103.262 323.961C106.404 323.961 109.568 323.826 112.698 323.557C118.633 323.158 124.505 322.124 130.207 320.474H130.276C167.118 311.282 194.236 284.468 204.665 246.893C205.043 245.719 205.169 244.482 205.034 243.26C204.899 242.037 204.506 240.855 203.88 239.786Z"></path>
    <path d="m 594.57031,11.142578 c -1.841,0.0181 -3.63128,0.597804 -5.11328,1.658203 -1.482,1.060399 -2.58153,2.548302 -3.14453,4.25 l -25.90625,88.333989 c -3.465,12.40998 -8.01514,25.67087 -12.36914,38.50585 l -0.64649,1.90626 -1.05078,3.09374 c -2.10199,6.255 -4.28472,12.73254 -6.38672,19.14454 l -0.0684,0.22656 -0.16211,0.17773 c -1.863,2.067 -4.16038,3.72719 -6.73438,4.86719 -2.575,1.14 -5.36922,1.73605 -8.19922,1.74805 -1.957,0.001 -3.90439,-0.2838 -5.77539,-0.8418 l -1.55859,-0.44727 c -2.506,-0.71399 -4.84014,-1.90495 -6.86914,-3.50195 -2.028,-1.597 -3.70932,-3.56973 -4.94532,-5.80273 -2.51699,-4.215 -2.40324,-10.86198 -1.15624,-15.91797 l -0.0918,-0.0566 0.2539,-0.85156 c 2.681,-9.071 1.56086,-18.80418 -3.11914,-27.07618 -4.67899,-8.27299 -12.53633,-14.4168 -21.86132,-17.09179 l -1.57032,-0.45899 c -3.06999,-0.878 -6.25798,-1.31206 -9.45898,-1.28906 -1.339,0 -2.70336,0.0665 -4.19336,0.18945 h -0.64648 c -6.27692,0.61333 -6.16602,-1.24414 -6.16602,-1.24414 l 4.75781,-16.533201 c 0,0 -15.62523,54.681251 15.02539,-52.115234 v -0.05664 c 0,0 0.48349,-2.006004 0.39649,-3.033203 -0.088,-1.027199 -0.3953,-2.025288 -0.9043,-2.929687 -0.54,-0.954299 -1.28178,-1.788667 -2.17578,-2.447266 -0.893,-0.658499 -1.91777,-1.1261 -3.00977,-1.375 -2.10299,-0.576699 -4.35567,-0.321208 -6.26367,0.712891 -1.908,1.034099 -3.31511,2.760583 -3.91211,4.800781 l -11.67578,39.964844 -5.47485,18.798828 -5.03515,17.251947 -4.27344,14.39258 v 0.0684 0.0566 c -0.132,0.299 -0.24299,0.60497 -0.33399,0.91797 l -15.83593,52.68555 c -1.216,4.01899 -3.73751,7.5485 -7.1875,10.0625 -3.45,2.515 -7.64595,3.88053 -11.96094,3.89453 -1.958,0 -3.90439,-0.28184 -5.77539,-0.83984 l -1.5586,-0.46094 c -2.52499,-0.67 -4.8854,-1.82644 -6.9414,-3.39844 -2.057,-1.572 -3.76725,-3.52891 -5.03125,-5.75391 -1.263,-2.22599 -2.05322,-4.67417 -2.32422,-7.20117 -0.27,-2.52699 -0.015,-5.08172 0.75,-7.51172 l 14.2168,-46.94726 5.26562,-18.720703 8.85941,-29.986328 8.08398,-27.53125 c 0.587,-2.037898 0.318,-4.217502 -0.75,-6.0625 -1.067,-1.844999 -2.84536,-3.204398 -4.94336,-3.779297 -0.721,-0.1964 -1.4678,-0.294116 -2.2168,-0.291016 -1.79399,-0.0074 -3.54251,0.551904 -4.97851,1.595703 -1.436,1.043899 -2.48247,2.514402 -2.98047,4.1875 l -10.23047,34.234375 -11.9668,41.769526 -4.22656,13.95508 v 0.0684 0.0664 c -0.16,0.365 -0.2943,0.74009 -0.4043,1.12109 l -15.82226,52.6875 c -1.559,4.869 -4.98151,8.9718 -9.5625,11.4668 -2.923,1.599 -6.21922,2.44408 -9.57422,2.45508 -1.954,-0.011 -3.89639,-0.27693 -5.77539,-0.79492 l -1.58203,-0.46094 c -2.52,-0.679 -4.87202,-1.84474 -6.91602,-3.42774 -2.044,-1.584 -3.73947,-3.55116 -4.98047,-5.78515 -1.27599,-2.23 -2.08114,-4.68476 -2.36914,-7.21875 -0.287,-2.535 -0.0497,-5.09893 0.69532,-7.54492 v -0.0781 l -0.10547,-1.12109 h 0.60156 c 3.465,-15.89599 -1.27063,-21.81509 -8.76563,-28.95508 -0.497,-0.527 -0.98179,-1.00867 -1.46679,-1.51367 -2.364,-2.291 -4.52875,-4.76916 -6.46875,-7.41016 -7.77199,-11.71399 -10.3122,-21.82608 -7.78321,-30.951171 l 0.69336,-2.43164 c 1.435,-4.101496 3.50282,-7.969054 6.13282,-11.46875 0.663,-0.7718 1.15526,-1.666761 1.44726,-2.63086 0.292,-0.964099 0.377,-1.97731 0.25,-2.974609 -0.138,-1.100899 -0.50136,-2.162401 -1.06836,-3.125 -0.567,-0.962599 -1.32637,-1.805617 -2.23437,-2.478516 -1.409,-0.967999 -3.09141,-1.490087 -4.81641,-1.492187 -1.313,0.0108 -2.60439,0.315272 -3.77539,0.888672 -1.172,0.573499 -2.19147,1.402222 -2.98047,2.419921 -8.23499,10.38039 -11.70063,23.471885 -15.01562,36.13867 -0.566,2.153 -1.15391,4.37311 -1.75391,6.53711 l -3.23437,11.20899 c -0.97,3.19499 -1.96447,6.43526 -2.98047,9.69726 -1.663,5.347 -3.37208,10.88447 -4.95508,16.35547 -0.122,0.429 -0.20319,0.86755 -0.24219,1.31055 v 0.10156 0.10156 l -9.97851,32.85547 c -0.733,2.461 -1.96219,4.755 -3.61719,6.75 -1.655,1.995 -3.70149,3.65009 -6.02149,4.87109 -2.31999,1.22 -4.86814,1.98229 -7.49414,2.23828 -2.62599,0.257 -5.27678,0.003 -7.80078,-0.74414 h -0.082 l -1.1543,-0.45898 c -2.51199,-0.678 -4.86025,-1.8353 -6.90625,-3.4043 -2.04599,-1.569 -3.74972,-3.51742 -5.01172,-5.73242 -1.29699,-2.214 -2.13207,-4.6556 -2.45507,-7.18359 -0.323,-2.527 -0.12774,-5.09188 0.57226,-7.54688 l 14.22852,-46.96875 5.10547,-17.5664 c 0.586,-2.041 0.31414,-4.22232 -0.75586,-6.07032 -1.069,-1.84699 -2.85018,-3.2082 -4.95117,-3.7832 -0.718,-0.191 -1.45908,-0.29002 -2.20508,-0.29102 -1.798,-0.002 -3.54743,0.56715 -4.98242,1.61915 -1.434,1.05299 -2.47585,2.53093 -2.96485,4.21093 v 0.12305 l -0.0684,0.11133 -0.40429,0.71875 c -0.048,0.237 -0.16022,0.45667 -0.32422,0.63867 -0.125,0.13 -0.27632,0.23373 -0.44532,0.30273 -0.169,0.07 -0.35215,0.10361 -0.53515,0.0996 -0.762,0 -1.53532,-0.5377 -3.69531,-2.0957 l -1.29493,-0.92969 c -3.62599,-2.62999 -7.70964,-4.60558 -12.05664,-5.830074 l -1.55859,-0.458984 c -4.607,-1.303299 -9.43413,-1.710465 -14.20313,-1.197266 -4.76899,0.513299 -9.38689,1.936504 -13.58789,4.187494 -4.19999,2.251 -7.90162,5.2857 -10.89062,8.92969 -2.988,3.644 -5.20544,7.82569 -6.52344,12.30469 L 130.322,176.18564 c -1.403,4.44999 -1.85604,9.13181 -1.33204,13.75781 0.524,4.62599 2.01487,9.09849 4.38086,13.14648 2.249,4.095 5.3183,7.71077 9.0293,10.63477 3.711,2.925 7.98908,5.09758 12.58008,6.39258 l 1.57031,0.44922 c 3.386,1.011 6.91013,1.52815 10.45313,1.53515 1.062,0 2.1467,-4.8e-4 3.2207,-0.14648 9.78699,-0.981 18.7823,-5.66888 25.0293,-13.04688 0.588,-0.698 1.32701,-1.26043 2.16601,-1.64843 0.838,-0.387 1.7546,-0.58975 2.6836,-0.59375 1.54199,0.026 3.03472,0.52954 4.26171,1.43554 3.78,3.069 8.19527,5.31308 12.94727,6.58008 l 1.58203,0.45898 c 3.368,1.005 6.86858,1.52788 10.39258,1.54688 0.982,0 1.96555,-5e-5 2.93555,-0.12305 7.33199,-0.587 14.3061,-3.32552 19.99609,-7.85351 5.68899,-4.527 9.82447,-10.6292 11.85547,-17.49219 l 15.82226,-52.6875 c 0.166,-0.489 0.28738,-0.99195 0.35938,-1.50195 v -0.0781 -0.0898 -0.13477 c 0.936,-3.00399 1.97402,-4.39453 3.29102,-4.39453 0.28799,0.003 0.57026,0.0779 0.82226,0.21289 0.252,0.135 0.46409,0.32655 0.62109,0.56055 0.512,0.501 0.94149,1.07708 1.27149,1.70508 0.07,0.135 0.14647,0.26558 0.23047,0.39257 2.56499,3.792 5.55874,7.29156 8.92773,10.43555 l 1.41992,1.42383 c 5.359,4.641 5.67075,5.73921 3.71875,14.1582 v 0.31446 0.18945 c -2.48699,8.98099 -1.24029,18.55044 3.47071,26.64844 4.71099,8.09699 12.51176,14.07453 21.71875,16.64453 h 0.0586 l 1.1543,0.46094 c 3.36899,0.99899 6.87153,1.51243 10.39453,1.52343 1.063,0 2.1467,-0.0565 3.2207,-0.14648 5.041,-0.482 9.92299,-1.97758 14.33399,-4.39258 5.72399,-3.033 10.49473,-7.51571 13.80273,-12.9707 l 0.80664,-1.32227 1.05078,1.11914 c 4.586,5.033 10.54927,8.70027 17.19727,10.57227 l 1.15625,0.45898 c 3.43699,0.994 7.00285,1.50367 10.58984,1.51367 1.016,0 2.04383,-7.6e-4 3.04883,-0.13476 4.373,-0.381 8.64061,-1.51833 12.59961,-3.36133 l 0.63672,-0.30469 0.55469,0.41602 c 0.77699,0.572 1.6415,1.02198 2.5625,1.33398 0.71299,0.182 1.44659,0.2753 2.18359,0.2793 1.797,0.003 3.54352,-0.56328 4.97851,-1.61328 1.434,-1.05 2.4768,-2.52708 2.9668,-4.20508 l 20.29297,-65.7793 v -0.11132 -0.10157 c 1.916,-3.23099 4.675,-5.91525 8,-7.78125 3.326,-1.866 7.09846,-2.84575 10.93945,-2.84375 1.818,-0.004 3.62882,0.22836 5.38282,0.69336 h 0.0586 l 1.22266,0.45899 c 4.95099,1.471 9.14256,4.71236 11.72656,9.06836 2.583,4.35499 3.3664,9.50053 2.19141,14.39453 l -0.83204,2.90429 c -1.40199,4.45 -1.85507,9.13087 -1.33007,13.75586 0.524,4.626 2.0139,9.10045 4.3789,13.14844 2.264,4.118 5.36052,7.75064 9.10352,10.68164 3.74199,2.931 8.05369,5.10091 12.67969,6.37891 l 1.57031,0.45898 c 3.36899,1.002 6.87153,1.51639 10.39453,1.52539 1.062,0 2.14866,-7.6e-4 3.22266,-0.13476 1.08599,-0.097 2.16342,-0.24999 3.23242,-0.45899 l 1.82617,-0.33789 -0.49805,1.73828 c -3.32599,11.64699 -5.7737,21.91473 -7.4707,31.38672 -2.749,15.21199 2.66578,28.97846 14.13476,35.93946 4.729,2.94799 10.23643,4.50537 15.85743,4.48437 0.889,0 1.78968,-5e-5 2.67968,-0.12305 5.142,-0.524 10.06827,-2.29348 14.32227,-5.14648 l 0.44922,-0.52539 0.0684,-0.0684 0.0703,-0.0664 c 16.34198,-13.33998 11.30684,-39.95173 3.46484,-66.7207 -0.263,-0.658 -0.35643,-1.36931 -0.27343,-2.07031 0.082,-0.701 0.33809,-1.37108 0.74609,-1.95508 0.488,-0.568 1.11045,-1.01388 1.81445,-1.29688 0.705,-0.283 1.46952,-0.39612 2.22852,-0.32812 h 0.86523 0.082 c 1.499,0.221 3.01135,0.32822 4.52735,0.32422 1.028,0 2.06647,2.3e-4 3.10547,-0.13477 5.35499,-0.447 10.54345,-2.03911 15.18945,-4.66211 4.647,-2.62199 8.6375,-6.20791 11.6875,-10.5039 l 0.8418,-1.18946 0.98242,1.1211 c 4.61199,5.25599 10.70526,9.08925 17.53125,11.03125 l 1.57031,0.45898 c 3.328,0.829 6.7505,1.25086 10.1875,1.25586 1.074,0 2.13606,2.4e-4 3.16406,-0.13476 6.377,-0.38 12.50965,-2.5153 17.68164,-6.1543 0.693,-0.46 1.34049,-0.89583 2.02149,-1.29883 1.828,-1.386 4.07944,-2.1443 6.39844,-2.1543 1.44199,-0.008 2.86176,0.33229 4.13476,0.98829 2.021,1.09199 4.16372,1.95712 6.38672,2.57812 l 1.58203,0.45898 c 3.329,0.828 6.75151,1.24986 10.1875,1.25586 1.085,0 2.14807,-7.6e-4 3.16406,-0.13476 6.303,-0.463 12.36718,-2.53672 17.57618,-6.01172 5.20899,-3.475 9.37803,-8.22744 12.08203,-13.77344 l 0.75195,-1.50195 1.1543,1.23242 c 4.47699,4.763 10.20722,8.25185 16.57422,10.08984 l 1.55859,0.45899 c 3.392,1.001 6.91689,1.51344 10.46289,1.52344 1.062,0 2.14866,0.001 3.22266,-0.13282 9.78399,-0.991 18.77435,-5.67783 25.02734,-13.04882 0.586,-0.7 1.32506,-1.26535 2.16406,-1.65235 0.839,-0.388 1.7585,-0.58984 2.6875,-0.58984 1.538,0.025 3.028,0.52855 4.25,1.43555 3.795,3.07599 8.23091,5.31736 13.00391,6.56835 l 1.58203,0.45899 c 3.368,1.006 6.87054,1.52687 10.39453,1.54687 0.982,0 1.9636,-4e-5 2.9336,-0.12304 4.30099,-0.381 8.5003,-1.49021 12.40429,-3.28321 l 0.62305,-0.29101 0.55469,0.40234 c 0.738,0.536 1.55678,0.95886 2.42578,1.25586 0.882,0.152 1.77297,0.24253 2.66797,0.26953 h 0.62304 c 1.65,-0.2 3.20638,-0.85567 4.48438,-1.88867 1.277,-1.034 2.22266,-2.40241 2.72266,-3.94141 l 4.72265,-16.05273 v -0.0566 l 0.11719,-0.33594 c 0.173,-0.482 0.33466,-0.92939 0.47266,-1.40039 l 5.8789,-19.55078 c 0.081,-0.246 0.28742,-0.82909 0.35742,-1.12109 v -0.32422 l 0.27735,-0.31446 0.0684,-0.20117 14.24218,-46.9707 2.10157,-6.972656 v -0.06641 c 1.78399,-4.592796 5.26467,-8.377643 9.76367,-10.619141 4.49899,-2.241598 9.69703,-2.779564 14.58203,-1.509765 l 1.59375,0.470703 c 2.558,0.729199 4.94167,1.943067 7.01367,3.572265 2.071,1.629199 3.78869,3.640071 5.05469,5.917969 1.265,2.277798 2.05241,4.778418 2.31641,7.353516 0.26399,2.575197 -0.002,5.175293 -0.78126,7.65039 l -4.82617,16.916016 -16.35351,53.650393 c -0.54,2.07 -0.25236,4.26081 0.80664,6.13281 1.058,1.873 2.80944,3.28608 4.89844,3.95508 l 0.53125,0.0898 c 0.63499,0.12299 1.27973,0.19389 1.92773,0.21289 h 0.5332 c 1.666,-0.159 3.2443,-0.7998 4.5293,-1.8418 1.286,-1.041 2.21778,-2.43505 2.67578,-3.99805 l 27.9961,-92.078126 c 1.50399,-4.958295 4.95347,-9.146512 9.60546,-11.662109 4.652,-2.515598 10.13649,-3.158715 15.27149,-1.791016 l 1.58203,0.460937 c 5.00999,1.519799 9.23369,4.839655 11.80469,9.28125 2.44999,4.662096 3.05326,10.034215 1.69726,15.09961 l -8.99609,31.164064 c -2.37,7.72199 -1.92247,16.00146 1.26953,23.43945 0.521,1.184 1.1153,2.33813 1.7793,3.45313 2.05899,3.751 4.79798,7.11092 8.08398,9.91992 6.44499,6.166 13.67048,9.29297 21.48048,9.29297 0.84,0 1.7101,6.7e-4 2.5801,-0.11133 0.86,-0.112 1.9608,-0.13476 2.8808,-0.13476 10.83,0 15.9483,5.71791 16.2383,11.3789 0.34,6.322 -5.2187,13.29386 -16.4687,14.38086 l -1.1504,0.11328 -360.17972,31.32032 -54.65234,4.73046 c -1.664,0.137 -3.2095,0.89333 -4.3125,2.11133 -1.103,1.218 -1.67752,2.80383 -1.60352,4.42383 0.075,1.62 0.79391,3.14958 2.00391,4.26758 1.211,1.118 2.81923,1.73847 4.49023,1.73047 h 0.55469 0.57812 l 415.14063,-36.24219 1.1504,-0.10156 v 0.10156 c 3.76,-0.347 16.2492,-2.11985 23.4492,-10.08984 4.06,-4.596 5.8199,-10.48026 5.1699,-17.53125 -0.87,-9.55099 -5.4498,-16.62454 -13.5898,-21.01954 -6.93,-3.70999 -15.0095,-4.92082 -21.4395,-5.54882 -0.84,-0.115 -1.6702,-0.29039 -2.4902,-0.52539 l -1.5703,-0.44922 c -2.44,-0.725 -4.7095,-1.90185 -6.68751,-3.46485 -0.416,-0.336 -0.85577,-0.69509 -1.25977,-1.12109 -2.384,-2.266 -4.17833,-5.0501 -5.23633,-8.12109 -1.058,-3.072 -1.34861,-6.34293 -0.84961,-9.54493 v -0.0996 c 0.12,-0.72599 0.28038,-1.44629 0.48438,-2.15429 l 8.99024,-31.162114 c 2.65,-9.071291 1.5187,-18.792455 -3.15235,-27.060547 -4.673,-8.268092 -12.51328,-14.419443 -21.82227,-17.119141 l -1.57031,-0.458984 c -6.94499,-1.848798 -14.29335,-1.699464 -21.15234,0.427734 -6.86,2.127298 -12.93819,6.141946 -17.49219,11.556641 -0.533,0.763699 -1.24699,1.391078 -2.08398,1.830078 -0.836,0.439 -1.76876,0.676006 -2.71875,0.691406 -1.622,-0.048 -3.17468,-0.64776 -4.38868,-1.693359 -3.80599,-3.161197 -8.25274,-5.512498 -13.05273,-6.904297 l -1.52344,-0.4375 c -3.33299,-0.852099 -6.76199,-1.296066 -10.20898,-1.322266 -1.631,0.0017 -3.261,0.117957 -4.875,0.347657 -0.618,0.1042 -1.2431,0.15605 -1.8711,0.15625 -2.66099,0.0223 -5.23231,-0.93559 -7.19531,-2.679688 -0.99,-0.815199 -2.14081,-1.424969 -3.38281,-1.792969 -0.829,-0.272799 -1.70017,-0.412162 -2.57617,-0.414062 -1.727,0.0152 -3.40054,0.574304 -4.76953,1.595703 -1.369,1.021499 -2.35936,2.448755 -2.81836,4.064453 l -7.29883,22.914063 c -0.061,0.555199 -0.26289,1.086675 -0.58789,1.546875 l -6.25,20.759765 v 0.05664 L 859.37305,82 c -0.053,0.1246 -0.0997,0.25146 -0.13867,0.380859 l -15.81055,52.687501 c -0.733,2.461 -1.96414,4.755 -3.61914,6.75 -1.655,1.995 -3.70149,3.65009 -6.02149,4.87109 -2.31999,1.22 -4.86814,1.98228 -7.49414,2.23828 -2.62599,0.257 -5.27678,0.003 -7.80078,-0.74414 h -0.082 l -1.1543,-0.45898 c -2.51199,-0.678 -4.86025,-1.8353 -6.90625,-3.4043 -2.04599,-1.569 -3.75067,-3.51742 -5.01367,-5.73242 -1.296,-2.21 -2.12817,-4.64592 -2.45117,-7.16992 -0.323,-2.524 -0.12969,-5.08611 0.57031,-7.53711 L 817.67969,76.910156 822.75,59.378906 c 0.586,-2.040898 0.31414,-4.225167 -0.75586,-6.072265 -1.069,-1.847099 -2.84722,-3.206251 -4.94922,-3.78125 -0.717,-0.2008 -1.45908,-0.302735 -2.20508,-0.302735 -1.79899,-0.0039 -3.55037,0.564589 -4.98437,1.617188 -1.435,1.052599 -2.47589,2.532392 -2.96289,4.21289 v 0.123047 l -0.0703,0.111328 -0.40235,0.728516 c -0.047,0.2337 -0.16022,0.451706 -0.32422,0.628906 -0.126,0.1294 -0.27826,0.231282 -0.44726,0.300781 -0.169,0.0694 -0.35216,0.103763 -0.53516,0.101563 -0.762,0 -1.54731,-0.536986 -3.69531,-2.083984 -0.404,-0.3027 -0.84269,-0.617741 -1.30469,-0.931641 -3.624,-2.635397 -7.70864,-4.613345 -12.05664,-5.839844 l -1.56055,-0.458984 c -4.60599,-1.303099 -9.43022,-1.710665 -14.19921,-1.197266 -4.768,0.5134 -9.38595,1.936303 -13.58594,4.1875 -4.2,2.251298 -7.89972,5.287745 -10.88672,8.931641 -2.987,3.643896 -5.20253,7.824839 -6.51953,12.302734 l -6.69922,22.072266 v 0.134765 l -0.0801,0.123047 c -0.318,0.5302 -0.58311,1.089323 -0.78711,1.669922 l -15.81055,52.685549 c -1.46699,4.98299 -4.89206,9.20577 -9.53906,11.75976 -3.052,1.521 -6.43128,2.3238 -9.86328,2.3418 -1.859,0 -3.71105,-0.252 -5.49805,-0.75 h -0.0566 l -1.15625,-0.45898 c -1.613,-0.403 -3.16514,-1.00693 -4.61914,-1.79493 -2.86499,-1.63699 -3.52142,-6.28811 -2.48242,-9.66211 l 12.47266,-40.21093 c 1.335,-4.471 1.74779,-9.15135 1.21679,-13.777346 -0.532,-4.625996 -1.99645,-9.106245 -4.31445,-13.181641 -2.317,-4.075296 -5.44046,-7.665662 -9.18945,-10.568359 -3.749,-2.902597 -8.05116,-5.060658 -12.66016,-6.347656 l -1.58203,-0.447266 c -3.407,-0.964399 -6.93733,-1.454731 -10.48633,-1.457031 -6.02899,-0.0229 -11.95855,1.500018 -17.18554,4.416015 -4.256,2.130898 -8.0103,5.093676 -11.0293,8.701172 -3.019,3.607597 -5.23668,7.782223 -6.51367,12.261719 l -14.9336,47.865233 c -0.365,1.227 -0.65695,2.47342 -0.87695,3.73242 v 0.0684 0.0566 l -4.37695,14.57227 c -1.239,3.96799 -3.7443,7.45317 -7.1543,9.95117 -3.411,2.498 -7.55127,3.88022 -11.82227,3.94922 -1.91299,-0.001 -3.81448,-0.27264 -5.64648,-0.80664 l -1.56055,-0.44922 c -2.57299,-0.649 -4.97745,-1.80925 -7.06445,-3.40625 -2.088,-1.598 -3.8125,-3.598 -5.0625,-5.875 -1.414,-2.69 -2.22863,-5.6393 -2.39063,-8.6543 v -0.17968 -0.17969 l 11.15821,-37.16016 c 0.098,-0.338 0.16703,-0.68325 0.20703,-1.03125 v -0.0898 -0.0781 l 0.30078,-0.96484 c 0.116,-0.381 0.23042,-0.77309 0.35742,-1.12109 l 25.9043,-88.378911 c 0.584,-2.039398 0.31309,-4.220408 -0.75391,-6.066406 -1.067,-1.846098 -2.84145,-3.20711 -4.93945,-3.787109 -0.722,-0.1918 -1.4678,-0.289416 -2.2168,-0.291016 z m 182.09766,51.31836 c 1.807,-5e-4 3.60666,0.237831 5.34765,0.707031 l 1.59376,0.458984 c 5.06299,1.500499 9.3167,4.87117 11.8457,9.384766 2.529,4.513695 3.13173,9.809405 1.67773,14.75 l -0.0117,0.03516 -15.83398,52.685541 c -1.217,4.018 -3.7365,7.5475 -7.1875,10.0625 -3.45,2.514 -7.64594,3.88053 -11.96094,3.89453 -1.957,0.001 -3.90439,-0.28379 -5.77539,-0.84179 l -1.55859,-0.44727 c -2.506,-0.714 -4.84015,-1.90495 -6.86914,-3.50195 -2.028,-1.597 -3.70932,-3.56874 -4.94532,-5.80274 -1.28199,-2.19199 -2.09095,-4.61509 -2.37695,-7.12109 -0.286,-2.505 -0.0441,-5.04017 0.71289,-7.45117 l 15.82422,-52.687498 c 1.285,-4.061496 3.86891,-7.620559 7.37891,-10.160157 3.50899,-2.539597 7.76167,-3.928344 12.13867,-3.964843 z M 660.18164,80.162109 c 1.913,-6e-4 3.81549,0.270942 5.64648,0.806641 l 1.57227,0.449219 c 5.038,1.463298 9.27588,4.796595 11.79688,9.27539 2.52099,4.478696 3.12096,9.741491 1.66796,14.646481 l -0.01,0.0332 -4.9668,15.9414 -0.40429,1.33399 c -1.282,4.16999 -12.29993,37.3167 -14.79493,39.3457 -1.172,1.117 -2.4965,2.07194 -3.9375,2.83594 -3.00999,1.505 -6.33961,2.30403 -9.72461,2.33203 -1.78299,0 -3.55758,-0.24924 -5.26757,-0.74023 l -1.5586,-0.45899 c -5.13499,-1.415 -9.48824,-4.73705 -12.11523,-9.24805 -1.815,-3.53999 -2.61355,-7.49155 -2.31055,-11.43554 v -0.0996 -0.11328 l 11.45703,-37.45118 c 0.162,-0.594 -1.05034,3.67619 -1.02734,2.99219 v -0.17773 -0.14649 l 4.9668,-16.2207 c 1.23899,-3.974796 3.74901,-7.464093 7.16601,-9.962891 3.418,-2.498797 7.56575,-3.8777 11.84375,-3.9375 z M 182.93359,113.96875 c 1.30908,0.0932 2.61444,0.30984 3.89844,0.65234 l 1.58203,0.47071 c 5.079,1.5 9.34596,4.88116 11.87696,9.41015 2.53099,4.529 3.12243,9.84398 1.64843,14.79297 h -0.0117 l -15.82226,52.68555 c -1.219,4.01899 -3.74332,7.54945 -7.19531,10.06445 -3.453,2.515 -7.64785,3.87958 -11.96485,3.89258 -1.957,0.001 -3.90439,-0.2838 -5.77539,-0.8418 l -1.55859,-0.44726 c -2.509,-0.711 -4.846,-1.90196 -6.875,-3.50196 -2.029,-1.59999 -3.70746,-3.57745 -4.93945,-5.81445 -1.28,-2.193 -2.08901,-4.61414 -2.375,-7.11914 -0.286,-2.505 -0.0441,-5.04213 0.71093,-7.45312 l 15.82227,-52.6875 c 1.502,-4.96 4.95247,-9.14807 9.60547,-11.66407 3.48974,-1.88699 7.44581,-2.7192 11.37304,-2.43945 z m 372.25391,62.03906 0.43945,4.74024 v 0.30273 c 5.867,18.23898 14.65598,45.75842 10.20899,58.94141 l -0.0117,0.0332 c -1.155,3.554 -5.77471,7.37813 -9.4707,7.70313 h -1.15625 c -2.536,-0.007 -5.00469,-0.79219 -7.05469,-2.24219 -5.913,-3.363 -8.48966,-10.71785 -6.72266,-19.21485 2.552,-13.82198 6.50268,-28.02479 10.01367,-40.17578 0.947,-3.06099 1.91589,-5.48247 1.96289,-5.60547 z"></path>
    <path d="M513.933 223.581C513.79 222.108 513.087 220.74 511.962 219.741C510.838 218.743 509.371 218.186 507.846 218.178C507.669 218.167 507.492 218.167 507.315 218.178L504.151 218.447L222.278 242.885L221.123 242.986C219.516 243.139 218.035 243.9 217 245.104C215.965 246.307 215.459 247.858 215.591 249.42C215.734 250.893 216.436 252.262 217.561 253.261C218.686 254.259 220.153 254.816 221.677 254.823H222.209L249.534 252.436L250.574 252.324L448.76 234.971L450.446 234.814L450.377 235.038L508.447 230.016C510.055 229.865 511.538 229.105 512.574 227.901C513.609 226.696 514.114 225.145 513.979 223.581H513.933Z"></path>
  </g>
  <g fill="#F8F7ED" style="mask: url(#mask_b);">
   <path d="M 553.00391,59.513672 410.75195,71.822266 h -0.3125 c -0.517,-7e-4 -1.02828,-0.121563 -1.48828,-0.351563 -0.46,-0.23 -0.85625,-0.562203 -1.15625,-0.970703 -0.521,-0.820999 -0.8434,-1.747632 -0.9414,-2.707031 -0.098,-0.959399 0.03,-1.927832 0.375,-2.832031 1.46809,-5.765763 -7.3379,-2.25586 -7.3379,-2.25586 0,0 -6.96056,-1.828944 -10.67773,4.609375 -1.086,3.531197 -4.89813,6.727116 -8.32812,7.041016 l -67.31055,5.80664 c -2.169,0.1992 -4.16746,1.221152 -5.56445,2.84375 -1.397,1.622499 -2.07949,3.715168 -1.89649,5.822266 0.195,1.984498 1.14125,3.827629 2.65625,5.173828 1.515,1.346099 3.49193,2.098028 5.54492,2.111328 h 0.72852 l 60.05469,-5.201172 h 0.66992 c 0.773,-0.0385 1.545,0.103963 2.25,0.414063 0.705,0.3101 1.32469,0.779541 1.80469,1.36914 0.472,0.6723 0.77104,1.442901 0.87304,2.25 0.103,0.8072 -0.28515,2.390625 -0.28515,2.390626 6.62206,3.823242 16.53929,2.909682 17.95898,-2.388672 0,0 1.80103,-3.395205 3.33203,-4.595704 1.531,-1.200598 3.37708,-1.962365 5.33008,-2.197265 L 554.4707,75.464844 c 2.108,-0.1882 4.06213,-1.158033 5.45313,-2.707032 1.392,-1.548998 2.11453,-3.55833 2.01953,-5.611328 -0.095,-2.052998 -1.00225,-3.99061 -2.53125,-5.412109 -1.529,-1.421499 -3.56269,-2.216903 -5.67969,-2.220703 z"></path>
   </g>
</svg>