<svg width="389" height="124" viewBox="0 0 389 124" fill="none" xmlns="http://www.w3.org/2000/svg">
<g clip-path="url(#clip0_5_15)">
<path d="M75.838 91.7698C75.362 90.9339 74.5845 90.3109 73.6642 90.0279C73.3685 89.9582 73.0659 89.9222 72.7621 89.9207C71.9545 89.9089 71.166 90.1661 70.521 90.6517C69.8761 91.1372 69.4115 91.8235 69.2006 92.6021C65.897 104.49 57.67 112.925 46.6378 115.743C43.9552 116.42 41.1991 116.763 38.4323 116.765C34.1345 116.77 29.8783 115.925 25.9097 114.277C21.941 112.63 18.3387 110.213 15.311 107.167C4.17561 95.8283 6.37948 79.71 11.6507 69.3148C14.5377 63.7161 18.4986 59.0483 23.0482 55.8221C27.5977 52.5958 32.7229 50.8883 37.7879 50.8883C38.9094 50.888 40.0293 50.9698 41.1388 51.1329C41.2937 51.1571 41.4503 51.1686 41.6071 51.1672C42.4791 51.14 43.3152 50.8139 43.9748 50.2435C44.6343 49.6731 45.0771 48.8934 45.2287 48.0353C45.3498 47.0879 45.0921 46.131 44.5115 45.3721C43.9309 44.6132 43.0741 44.1134 42.1269 43.9811C29.9132 42.1835 29.9691 30.6085 30.2784 27.1034C30.6932 22.1889 32.5274 17.5003 35.5583 13.6064C38.8662 9.50494 43.0935 7.34267 47.7891 7.34267H48.2789C52.8928 7.44563 56.5617 9.32045 58.5894 12.6325C60.789 16.1934 60.7675 21.2558 58.5335 25.8549C58.3092 26.2963 58.1761 26.7783 58.1422 27.2721C58.1082 27.7659 58.1741 28.2615 58.3359 28.7294C58.487 29.168 58.7266 29.571 59.0399 29.9134C59.3532 30.2558 59.7336 30.5304 60.1574 30.72C60.6463 30.9451 61.1786 31.0608 61.7169 31.059C62.3982 31.0587 63.067 30.8759 63.6533 30.5295C64.2397 30.1831 64.7223 29.6859 65.0506 29.0898C68.3844 22.071 68.2469 14.503 64.6855 8.82278C61.4806 3.43428 55.5349 0.24236 48.3605 0.0235596H47.9309C33.6938 0.0235596 24.0706 13.5163 23.0138 26.5585C22.5069 32.9939 23.7957 38.4253 26.8502 42.7541C27.0581 43.0283 27.2005 43.3463 27.2668 43.6838C27.3331 44.0214 27.3213 44.3695 27.2325 44.7018C27.1275 45.0074 26.9547 45.2853 26.7271 45.5149C26.4995 45.7444 26.2229 45.9197 25.9179 46.0275C17.3903 49.4854 10.0011 56.6158 5.12074 66.11C-3.205 82.4128 -1.26319 100.513 10.0827 112.195C17.5898 119.716 27.7775 123.956 38.4108 123.985C39.5794 123.985 40.7565 123.934 41.9207 123.831C44.1285 123.678 46.3127 123.282 48.4335 122.651H48.4593C62.1637 119.133 72.2508 108.871 76.1302 94.4898C76.2708 94.0406 76.3174 93.5674 76.2672 93.0994C76.2169 92.6315 76.0708 92.1789 75.838 91.7698Z" fill="#F8F7ED"/>
<path d="M388.294 60.8652C387.967 57.21 386.266 54.5028 383.237 52.8211C380.66 51.401 377.653 50.9377 375.264 50.6974C374.95 50.6534 374.64 50.586 374.336 50.4958L373.752 50.3242C372.845 50.0468 372 49.5966 371.264 48.9985C371.11 48.8698 370.947 48.7325 370.796 48.5695C369.91 47.7021 369.242 46.6368 368.848 45.4612C368.455 44.2857 368.346 43.0336 368.532 41.8081V41.7695C368.577 41.4917 368.637 41.2167 368.713 40.9458L372.055 29.019C373.043 25.5473 372.622 21.8266 370.884 18.6623C369.146 15.4979 366.23 13.1445 362.767 12.1113L362.183 11.9354C359.599 11.2278 356.866 11.2846 354.314 12.0987C351.762 12.9128 349.502 14.4493 347.808 16.5216C347.609 16.8139 347.344 17.0542 347.032 17.2222C346.721 17.3902 346.374 17.481 346.021 17.4869C345.418 17.4685 344.84 17.2392 344.388 16.8391C342.973 15.6292 341.319 14.729 339.534 14.1963L338.967 14.029C337.727 13.7029 336.451 13.5328 335.169 13.5227C334.562 13.5234 333.956 13.5679 333.356 13.6557C333.126 13.6956 332.893 13.7157 332.66 13.7158C331.67 13.7243 330.714 13.358 329.984 12.6904C329.615 12.3785 329.187 12.1449 328.725 12.004C328.416 11.8996 328.093 11.846 327.767 11.8453C327.125 11.8511 326.502 12.0657 325.992 12.4566C325.483 12.8475 325.115 13.3935 324.944 14.0118L322.229 22.781C322.207 22.9935 322.131 23.1969 322.01 23.3731L319.686 31.3185V31.34L319.665 31.3829C319.645 31.4306 319.628 31.4793 319.613 31.5288L313.732 51.6928C313.459 52.6345 313.002 53.5126 312.386 54.2762C311.77 55.0397 311.009 55.6734 310.146 56.1405C309.283 56.6076 308.335 56.8986 307.359 56.9968C306.382 57.095 305.396 56.9983 304.457 56.7123H304.426L303.997 56.5364C303.062 56.2768 302.189 55.8339 301.428 55.2336C300.667 54.6332 300.033 53.8875 299.563 53.0399C299.081 52.194 298.771 51.2613 298.651 50.2953C298.531 49.3293 298.603 48.3492 298.863 47.4111L304.156 29.4351L306.042 22.7252C306.26 21.9442 306.159 21.1086 305.761 20.4016C305.363 19.6947 304.701 19.1742 303.92 18.9542C303.653 18.8773 303.377 18.8383 303.099 18.8383C302.43 18.8368 301.779 19.0541 301.245 19.4569C300.711 19.8598 300.324 20.4261 300.143 21.0692V21.1164L300.118 21.1593L299.967 21.4382C299.949 21.5276 299.908 21.6106 299.847 21.6784C299.8 21.728 299.743 21.7673 299.681 21.7939C299.618 21.8204 299.55 21.8337 299.482 21.8329C299.198 21.8329 298.906 21.627 298.107 21.0349C297.957 20.9191 297.793 20.7989 297.622 20.6788C296.273 19.6702 294.754 18.913 293.137 18.4436L292.557 18.2677C290.843 17.769 289.048 17.6134 287.274 17.8099C285.501 18.0064 283.783 18.5511 282.221 19.4127C280.659 20.2743 279.282 21.4358 278.171 22.8303C277.06 24.2249 276.236 25.8251 275.746 27.5389L273.254 35.9863V36.0378L273.224 36.085C273.106 36.2879 273.008 36.502 272.932 36.7242L267.051 56.8882C266.505 58.7951 265.231 60.4115 263.502 61.3886C262.367 61.9711 261.11 62.2783 259.834 62.2853C259.142 62.2851 258.454 62.1883 257.789 61.9979H257.767L257.338 61.822C256.738 61.6678 256.16 61.4371 255.619 61.1355C254.554 60.5091 254.309 58.7287 254.695 57.4374L259.335 42.0484C259.832 40.3373 259.986 38.5453 259.788 36.7748C259.59 35.0044 259.045 33.2902 258.183 31.7305C257.321 30.1708 256.159 28.7962 254.765 27.6853C253.37 26.5744 251.77 25.749 250.056 25.2565L249.467 25.0849C248.2 24.7158 246.886 24.528 245.566 24.5271C243.324 24.5184 241.118 25.1015 239.174 26.2175C237.591 27.033 236.194 28.1667 235.071 29.5474C233.948 30.9281 233.123 32.5258 232.648 34.2402L227.093 52.5594C226.957 53.029 226.848 53.506 226.767 53.988V54.0138V54.0352L225.139 59.6125C224.678 61.1313 223.746 62.4648 222.477 63.4208C221.209 64.3768 219.669 64.9061 218.08 64.9324C217.369 64.9321 216.661 64.8281 215.979 64.6235L215.4 64.4519C214.443 64.2035 213.547 63.7596 212.771 63.1481C211.995 62.5367 211.354 61.771 210.889 60.8996C210.363 59.8702 210.059 58.7417 209.999 57.5875V57.5189V57.4502L214.149 43.2282C214.186 43.0989 214.212 42.9669 214.227 42.8335V42.7992V42.7691L214.338 42.4002C214.381 42.2543 214.424 42.1041 214.472 41.9711L224.108 8.14712C224.325 7.36663 224.224 6.53206 223.827 5.82556C223.43 5.11906 222.77 4.59797 221.99 4.37602C221.721 4.3026 221.443 4.26509 221.165 4.26447C220.48 4.27139 219.815 4.49353 219.263 4.89937C218.712 5.3052 218.302 5.87413 218.093 6.52542L208.457 40.3323C207.168 45.0815 205.476 50.1569 203.856 55.0692L203.615 55.7985L203.225 56.9826C202.443 59.3765 201.631 61.8563 200.849 64.3103L200.823 64.3961L200.763 64.4647C200.07 65.2558 199.216 65.8906 198.258 66.327C197.3 66.7634 196.261 66.9915 195.208 66.9959C194.48 66.9962 193.756 66.8878 193.06 66.6742L192.48 66.5026C191.548 66.2296 190.679 65.7742 189.925 65.1629C189.17 64.5515 188.545 63.7965 188.085 62.9417C187.149 61.3286 187.192 58.7845 187.656 56.8496L187.621 56.8282L187.716 56.5021C188.713 53.0302 188.296 49.3055 186.555 46.1393C184.815 42.9732 181.892 40.6222 178.423 39.5987L177.839 39.4228C176.697 39.0868 175.511 38.9206 174.321 38.9294C173.822 38.9294 173.315 38.9551 172.761 39.0023H172.521C172.267 39.0124 172.013 38.9713 171.776 38.8814C171.538 38.7914 171.321 38.6545 171.137 38.4789L171.051 38.7664L170.227 38.5261L171.997 32.198L172.078 31.9106L172.375 31.8849L206.249 28.8817C207.033 28.8096 207.76 28.4387 208.277 27.8459C208.795 27.253 209.064 26.4839 209.028 25.6982C208.993 24.9125 208.656 24.1706 208.087 23.6266C207.518 23.0825 206.762 22.7782 205.974 22.7767C205.882 22.7767 205.792 22.7767 205.703 22.7767L174.484 25.531L173.865 25.5868L174.033 24.9905L177.586 12.2528V12.2314C177.716 11.8589 177.766 11.4633 177.733 11.0702C177.701 10.6771 177.586 10.2951 177.397 9.949C177.196 9.58377 176.92 9.26479 176.588 9.01276C176.256 8.76073 175.874 8.58127 175.468 8.48603C174.686 8.26529 173.848 8.3636 173.138 8.75937C172.428 9.15514 171.905 9.81601 171.683 10.5968L167.34 25.8914L167.262 26.1746L166.966 26.2003L152.789 27.4874H152.673C152.48 27.4871 152.291 27.441 152.12 27.353C151.949 27.265 151.801 27.1375 151.689 26.9811C151.495 26.667 151.376 26.3129 151.339 25.9457C151.303 25.5785 151.35 25.2079 151.479 24.8618L154.486 14.325C154.704 13.5451 154.604 12.7105 154.207 12.0044C153.81 11.2983 153.148 10.7782 152.368 10.5582C152.099 10.483 151.822 10.4455 151.543 10.4467C150.876 10.4439 150.226 10.6585 149.691 11.058C149.157 11.4575 148.768 12.0201 148.583 12.6604L144.777 25.7627C144.373 27.1141 142.955 28.3369 141.679 28.457L116.642 30.6793C115.835 30.7556 115.091 31.1467 114.572 31.7676C114.052 32.3886 113.799 33.1892 113.867 33.9956C113.939 34.7552 114.291 35.4608 114.855 35.976C115.418 36.4912 116.153 36.7792 116.917 36.7843H117.188L139.527 34.7936H139.776C140.064 34.7789 140.351 34.8331 140.613 34.9518C140.875 35.0705 141.106 35.2501 141.284 35.4758C141.459 35.7331 141.571 36.0284 141.609 36.3373C141.647 36.6463 141.611 36.9598 141.503 37.2519L140.326 41.748L138.754 47.0894V47.1151V47.1408C138.695 47.2805 138.644 47.4238 138.603 47.5699L132.718 67.7339C132.138 69.5973 130.865 71.168 129.161 72.1228C128.073 72.7347 126.847 73.0582 125.599 73.0623C124.873 73.0584 124.15 72.9559 123.451 72.7577L122.863 72.5818C121.925 72.3219 121.05 71.8756 120.29 71.2696C119.529 70.6636 118.899 69.9104 118.438 69.0553C117.963 68.202 117.664 67.2629 117.557 66.2928C117.45 65.3226 117.537 64.3409 117.815 63.405V63.375L117.776 62.946H118C119.288 56.8625 117.527 54.5972 114.739 51.8644C114.554 51.6627 114.374 51.4783 114.193 51.2852C113.314 50.4084 112.509 49.4598 111.787 48.4494C108.896 43.9661 107.951 40.0963 108.892 36.6041L109.15 35.6731C109.684 34.1034 110.453 32.6236 111.431 31.2842C111.678 30.9889 111.861 30.6461 111.969 30.2771C112.078 29.9081 112.11 29.5208 112.062 29.1391C112.011 28.7178 111.876 28.3109 111.665 27.9425C111.454 27.574 111.172 27.2516 110.834 26.994C110.31 26.6235 109.684 26.4242 109.042 26.4234C108.554 26.4275 108.074 26.5439 107.638 26.7633C107.202 26.9828 106.823 27.2996 106.529 27.689C103.466 31.6618 102.177 36.6727 100.944 41.5207C100.734 42.3444 100.515 43.1939 100.291 44.0219L99.0883 48.3121C98.7275 49.5348 98.358 50.7747 97.9799 52.0231C97.3613 54.0695 96.7255 56.1889 96.1369 58.2825C96.0914 58.4467 96.0612 58.6147 96.0467 58.7845V58.8231V58.8617L92.3349 71.4363C92.0622 72.378 91.6047 73.2561 90.9891 74.0197C90.3735 74.7833 89.612 75.417 88.749 75.884C87.886 76.3511 86.9386 76.6422 85.9619 76.7403C84.9852 76.8385 83.9987 76.7418 83.0598 76.4559H83.0297L82.6001 76.28C81.6656 76.0204 80.7923 75.5775 80.0311 74.9771C79.2699 74.3768 78.636 73.6311 78.1666 72.7835C77.6843 71.936 77.3741 71.0018 77.254 70.0345C77.1338 69.0671 77.206 68.0856 77.4663 67.1461L82.759 49.1701L84.6579 42.4474C84.876 41.6663 84.7751 40.8307 84.3773 40.1238C83.9795 39.4168 83.3172 38.8963 82.5357 38.6763C82.2683 38.6029 81.9924 38.5654 81.7151 38.5647C81.0463 38.5639 80.3955 38.7815 79.8619 39.1842C79.3283 39.5869 78.9412 40.1528 78.7594 40.7956V40.8428L78.7337 40.8857L78.5833 41.1603C78.5655 41.251 78.524 41.3354 78.463 41.4048C78.4164 41.4548 78.3599 41.4944 78.2969 41.521C78.234 41.5476 78.1662 41.5606 78.0978 41.5593C77.8143 41.5593 77.5265 41.3533 76.7231 40.757L76.2419 40.4009C74.8931 39.3945 73.3739 38.6388 71.7569 38.17L71.1769 37.9941C69.4633 37.4953 67.6679 37.3397 65.8938 37.5361C64.1198 37.7326 62.4021 38.2772 60.8395 39.1388C59.277 40.0003 57.9003 41.1618 56.7887 42.5564C55.6771 43.9511 54.8524 45.5513 54.3622 47.2653L48.4766 67.4293C47.9547 69.1324 47.7861 70.9239 47.9811 72.6942C48.1761 74.4646 48.7306 76.1767 49.6108 77.7258C50.447 79.2929 51.5891 80.6769 52.9696 81.7961C54.3501 82.9154 55.9411 83.7472 57.6487 84.2426L58.2329 84.4142C59.4926 84.8012 60.8029 84.9992 62.1208 85.002C62.5161 85.002 62.9199 85.002 63.3194 84.9462C66.96 84.5707 70.3053 82.7762 72.629 79.9524C72.8479 79.6855 73.1231 79.4702 73.4351 79.3219C73.747 79.1735 74.0878 79.0959 74.4333 79.0944C75.0067 79.1045 75.562 79.2968 76.0186 79.6435C77.4245 80.818 79.0669 81.6769 80.8344 82.1618L81.423 82.3378C82.6759 82.7227 83.9786 82.9222 85.2894 82.9298C85.6546 82.9298 86.0198 82.9298 86.3806 82.8826C89.1081 82.6579 91.7024 81.6095 93.8189 79.8768C95.9353 78.1441 97.4735 75.8092 98.2291 73.1824L104.115 53.0184C104.176 52.8312 104.221 52.6388 104.248 52.4436V52.4135V52.3792V52.3277C104.596 51.1779 104.983 50.646 105.472 50.646C105.579 50.6472 105.684 50.6749 105.778 50.7266C105.872 50.7782 105.951 50.8522 106.009 50.942C106.2 51.1335 106.359 51.3535 106.482 51.5941C106.508 51.6457 106.536 51.6958 106.568 51.7442C107.522 53.1955 108.636 54.5352 109.889 55.7384L110.417 56.2833C112.41 58.0594 112.526 58.4799 111.8 61.7018V61.822V61.8949C110.875 65.3319 111.339 68.9943 113.091 72.0933C114.844 75.1922 117.745 77.4799 121.17 78.4637H121.191L121.621 78.6396C122.874 79.0223 124.177 79.2189 125.488 79.2231C125.883 79.2231 126.287 79.2016 126.686 79.1673C128.561 78.9825 130.377 78.4098 132.018 77.4855C134.147 76.3248 135.921 74.6094 137.151 72.5217L137.452 72.0155L137.843 72.4445C139.549 74.3707 141.767 75.7737 144.24 76.4902L144.669 76.6661C145.948 77.0463 147.275 77.2414 148.609 77.2453C148.987 77.2453 149.369 77.2453 149.743 77.1938C151.37 77.0479 152.957 76.612 154.43 75.9067L154.666 75.7909L154.872 75.9496C155.162 76.1685 155.484 76.3407 155.826 76.4602C156.091 76.5298 156.364 76.5658 156.638 76.5674C157.306 76.5685 157.957 76.3516 158.49 75.9496C159.024 75.5477 159.411 74.9828 159.594 74.3408L167.142 49.1658V49.1229V49.0843C167.855 47.8475 168.881 46.8203 170.118 46.1062C171.355 45.3922 172.759 45.0165 174.188 45.0172C174.864 45.016 175.537 45.1054 176.189 45.2832H176.211L176.666 45.4591C178.508 46.0221 180.067 47.2625 181.028 48.9293C181.989 50.5962 182.28 52.5653 181.843 54.4385L181.534 55.5497C181.012 57.2528 180.844 59.0443 181.039 60.8146C181.234 62.5849 181.788 64.2969 182.668 65.8462C183.51 67.4222 184.662 68.8126 186.054 69.9345C187.446 71.0564 189.05 71.8867 190.77 72.3759L191.355 72.5518C192.608 72.9352 193.91 73.1318 195.221 73.1352C195.616 73.1352 196.02 73.1352 196.42 73.0838C196.823 73.0467 197.225 72.988 197.622 72.9079L198.301 72.7792L198.117 73.4441C196.879 77.9017 195.968 81.8315 195.337 85.4567C194.315 91.2785 196.329 96.5469 200.595 99.2112C202.355 100.339 204.403 100.935 206.494 100.927C206.825 100.927 207.16 100.927 207.49 100.88C209.403 100.68 211.235 100.003 212.818 98.9108L212.985 98.7092L213.011 98.6835L213.037 98.6577C219.116 93.5524 217.243 83.3674 214.326 73.1224C214.228 72.8706 214.193 72.5989 214.224 72.3306C214.254 72.0624 214.35 71.8055 214.502 71.5822C214.683 71.3645 214.915 71.1942 215.177 71.0858C215.438 70.9774 215.723 70.9343 216.005 70.9601H216.327H216.358C216.915 71.0446 217.478 71.0862 218.042 71.0845C218.424 71.0845 218.811 71.0845 219.197 71.033C221.189 70.8617 223.118 70.2524 224.847 69.2488C226.575 68.2453 228.06 66.8723 229.194 65.2284L229.508 64.7736L229.873 65.2026C231.589 67.214 233.855 68.6813 236.394 69.4242L236.979 69.6001C238.217 69.9172 239.49 70.0787 240.768 70.0806C241.167 70.0806 241.562 70.0806 241.945 70.0291C244.317 69.8836 246.598 69.0666 248.522 67.6738C248.78 67.4979 249.02 67.3306 249.274 67.1761C249.954 66.6457 250.791 66.356 251.654 66.3524C252.19 66.3491 252.718 66.4788 253.192 66.73C253.944 67.1479 254.741 67.479 255.568 67.7167L256.156 67.8926C257.394 68.2095 258.667 68.3709 259.945 68.3731C260.349 68.3731 260.744 68.3731 261.122 68.3216C263.467 68.1444 265.723 67.3504 267.66 66.0204C269.598 64.6904 271.149 62.8718 272.155 60.7494L272.434 60.1745L272.863 60.6464C274.529 62.4691 276.66 63.804 279.028 64.5076L279.608 64.6835C280.87 65.0666 282.181 65.2632 283.5 65.267C283.896 65.267 284.3 65.267 284.699 65.2155C288.339 64.8364 291.683 63.0426 294.009 60.2217C294.227 59.9537 294.502 59.7376 294.814 59.5891C295.126 59.4407 295.467 59.3637 295.813 59.3637C296.385 59.3732 296.939 59.5657 297.394 59.9128C298.805 61.0901 300.456 61.9478 302.231 62.4269L302.82 62.6028C304.073 62.9878 305.375 63.1872 306.686 63.1948C307.051 63.1948 307.417 63.1948 307.777 63.1476C309.377 63.0021 310.939 62.5766 312.391 61.8906L312.623 61.779L312.83 61.9335C313.104 62.1384 313.408 62.3004 313.732 62.414C314.06 62.4723 314.391 62.5067 314.724 62.517H314.956C315.57 62.4404 316.149 62.1895 316.624 61.7941C317.099 61.3986 317.451 60.8752 317.637 60.2861L319.394 54.1425V54.121L319.437 53.9923C319.501 53.8078 319.561 53.6362 319.613 53.456L321.8 45.9739C321.83 45.8795 321.907 45.6564 321.933 45.5449V45.4205L322.036 45.3003L322.062 45.2231L327.359 27.2471L328.141 24.5786V24.5529C328.805 22.7951 330.099 21.3466 331.773 20.4887C333.446 19.6308 335.38 19.4249 337.197 19.9109L337.79 20.0911C338.741 20.3701 339.628 20.8348 340.398 21.4583C341.169 22.0818 341.808 22.8518 342.279 23.7235C342.749 24.5953 343.042 25.5516 343.14 26.5372C343.238 27.5227 343.14 28.5179 342.85 29.4652L341.055 35.9391L334.971 56.4721C334.77 57.2644 334.878 58.1033 335.271 58.8198C335.665 59.5363 336.316 60.0771 337.094 60.3332L337.291 60.3676C337.528 60.4147 337.768 60.442 338.009 60.4491H338.206C338.826 60.3884 339.413 60.1427 339.892 59.7441C340.37 59.3454 340.717 58.8122 340.887 58.2139L351.301 22.9741C351.86 21.0765 353.143 19.474 354.874 18.5112C356.604 17.5485 358.644 17.3024 360.554 17.8258L361.143 18.0017C363.006 18.5834 364.577 19.8541 365.534 21.554C366.445 23.3383 366.67 25.3944 366.165 27.3329L362.818 39.2597C361.937 42.2151 362.104 45.3838 363.291 48.2306C363.485 48.6839 363.706 49.1252 363.953 49.5519C364.719 50.9875 365.737 52.2736 366.96 53.3488C369.357 55.7084 372.046 56.9054 374.95 56.9054C375.264 56.9054 375.586 56.9054 375.908 56.8625C376.231 56.8196 376.639 56.811 376.982 56.811C381.008 56.811 382.915 58.999 383.023 61.1656C383.147 63.5852 381.081 66.2537 376.897 66.6699L376.467 66.7128L242.49 78.6996L222.161 80.5101C221.542 80.5624 220.967 80.8521 220.557 81.3184C220.147 81.7846 219.933 82.3914 219.961 83.0114C219.989 83.6315 220.256 84.2168 220.706 84.6446C221.156 85.0724 221.755 85.3097 222.376 85.3066H222.582H222.797L377.219 71.4363L377.648 71.3977V71.4363C379.045 71.3033 383.693 70.6255 386.369 67.5751C387.882 65.8161 388.535 63.5638 388.294 60.8652ZM75.1121 53.3102L69.2265 73.4742C68.773 75.0123 67.8344 76.3631 66.5502 77.3255C65.266 78.2879 63.7049 78.8105 62.0994 78.8155C61.3713 78.8158 60.6473 78.7073 59.9513 78.4937L59.3714 78.3221C58.4381 78.0499 57.5686 77.5944 56.8139 76.9822C56.0592 76.37 55.4345 75.6134 54.9765 74.7569C54.5001 73.9178 54.1996 72.9906 54.0932 72.0318C53.9869 71.073 54.0769 70.1026 54.3579 69.1797L60.2435 49.0157C60.8022 47.1174 62.0851 45.5142 63.8158 44.5513C65.5466 43.5884 67.5868 43.3428 69.4971 43.8674L70.0857 44.0476C71.9748 44.6217 73.5616 45.9153 74.503 47.6487C75.4445 49.3821 75.6648 51.4158 75.1164 53.3102H75.1121ZM165.303 33.0861L163.43 39.6888L161.841 45.1974V45.2231V45.2446C161.792 45.3591 161.75 45.4766 161.716 45.5964L155.826 65.7604C155.374 67.2982 154.436 68.6488 153.152 69.6113C151.869 70.5737 150.308 71.0965 148.703 71.1017C147.975 71.102 147.251 70.9935 146.555 70.7799L145.975 70.604C145.036 70.3474 144.158 69.9051 143.393 69.3034C142.628 68.7018 141.992 67.9529 141.522 67.1011C141.052 66.2494 140.758 65.3122 140.657 64.345C140.557 63.3777 140.652 62.4001 140.936 61.4701L146.225 43.5028L148.184 36.3381C148.424 35.6476 148.853 35.0382 149.423 34.5788C149.992 34.1193 150.679 33.8281 151.406 33.7382L164.839 32.5413L165.462 32.4855L165.303 33.0861ZM210.472 91.862C210.042 93.222 208.324 94.685 206.949 94.8094C206.803 94.8094 206.661 94.8094 206.52 94.8094C205.576 94.8068 204.657 94.5065 203.895 93.9514C201.695 92.6643 200.737 89.8499 201.394 86.5979C202.344 81.3081 203.813 75.8724 205.119 71.2218C205.471 70.0506 205.832 69.1239 205.849 69.0767L206.515 67.3606L206.679 69.1754V69.2912C208.861 76.2714 212.13 86.8039 210.476 91.8491L210.472 91.862ZM253.261 40.328L251.413 46.4287L251.263 46.9392C250.786 48.5352 246.688 61.2213 245.76 61.9979C245.324 62.4254 244.831 62.7906 244.295 63.0833C243.175 63.6591 241.936 63.9647 240.677 63.9756C240.014 63.9758 239.354 63.8804 238.718 63.6925L238.138 63.5166C236.228 62.975 234.609 61.7033 233.632 59.9772C232.957 58.6222 232.66 57.1104 232.773 55.6011V55.5625V55.5196L237.034 41.186C237.095 40.9586 236.643 42.5932 236.652 42.3315V42.2629V42.2071L238.499 35.9992C238.96 34.4779 239.894 33.1426 241.165 32.1863C242.436 31.2299 243.979 30.7022 245.571 30.6793C246.282 30.6791 246.99 30.7832 247.671 30.9882L248.256 31.1598C250.129 31.7198 251.706 32.9954 252.644 34.7094C253.582 36.4235 253.805 38.4378 253.265 40.3151L253.261 40.328ZM296.509 33.6009L290.619 53.7649C290.166 55.3027 289.229 56.6534 287.945 57.6159C286.662 58.5783 285.101 59.1011 283.496 59.1063C282.768 59.1065 282.044 58.9981 281.348 58.7845L280.768 58.6129C279.836 58.3399 278.967 57.8845 278.213 57.2732C277.458 56.6618 276.833 55.9068 276.373 55.052C275.896 54.213 275.596 53.2858 275.489 52.3269C275.383 51.3681 275.473 50.3976 275.755 49.4747L281.64 29.3107C282.118 27.7563 283.08 26.3944 284.385 25.4225C285.691 24.4505 287.272 23.919 288.901 23.9051C289.573 23.9049 290.242 23.9958 290.89 24.1753L291.482 24.3512C293.366 24.9255 294.948 26.2151 295.889 27.9426C296.83 29.67 297.054 31.6972 296.513 33.5881L296.509 33.6009Z" fill="#F8F7ED"/>
<path d="M191.17 85.5683C191.116 85.0045 190.855 84.4807 190.437 84.0986C190.018 83.7164 189.473 83.5032 188.906 83.5004C188.84 83.4961 188.774 83.4961 188.708 83.5004L187.531 83.6034L82.6817 92.956L82.2521 92.9946C81.6541 93.0534 81.1033 93.3445 80.7183 93.8052C80.3334 94.2659 80.1451 94.8592 80.1943 95.4572C80.2475 96.0209 80.5088 96.5448 80.9272 96.9269C81.3456 97.3091 81.8913 97.5223 82.4583 97.5251H82.6559L92.8203 96.6113L93.207 96.5684L166.927 89.9271L167.554 89.8671L167.529 89.9529L189.129 88.0309C189.727 87.9731 190.279 87.6823 190.664 87.2214C191.049 86.7604 191.237 86.1665 191.187 85.5683H191.17Z" fill="#F8F7ED"/>
</g>
<defs>
<clipPath id="clip0_5_15">
<rect width="388.341" height="124" fill="white"/>
</clipPath>
</defs>
</svg>
