
<svg width="20" height="16" viewBox="0 0 20 16" fill="none" xmlns="http://www.w3.org/2000/svg">
<title>Twitter</title>
<path d="M20 0.00896646C19.1294 0.611275 18.1656 1.07195 17.1455 1.37324C16.5979 0.755757 15.8703 0.318104 15.0609 0.119469C14.2516 -0.0791668 13.3995 -0.0292013 12.6201 0.262608C11.8406 0.554416 11.1713 1.07399 10.7027 1.75105C10.2341 2.42812 9.98882 3.23001 10 4.04827V4.93995C8.40239 4.98058 6.81934 4.63305 5.39183 3.92829C3.96431 3.22354 2.73665 2.18345 1.81818 0.900645C1.81818 0.900645 -1.81818 8.92575 6.36364 12.4925C4.49139 13.739 2.26105 14.364 0 14.2758C8.18182 18.7342 18.1818 14.2758 18.1818 4.02152C18.181 3.77315 18.1566 3.52539 18.1091 3.28143C19.0369 2.38395 19.6917 1.25082 20 0.00896646Z" fill="#F8F7ED"/>
</svg>
